<svg id="Layer_1" data-name="Layer 1" xmlns="http://www.w3.org/2000/svg" viewBox="0 0 512 512"><defs><style>.cls-1{fill:#d9e4e8;}.cls-2{fill:#17292d;opacity:0.14;}.cls-3{fill:#79d3d3;}.cls-4{fill:#141f38;}</style></defs><title>spaceship_style_3</title><path class="cls-1" d="M499.2,435.2A12.82,12.82,0,0,1,486.4,448H305a19.15,19.15,0,0,1,16,8.55l8.53,12.8a19.2,19.2,0,0,1-16,29.85H198.45a19.2,19.2,0,0,1-16-29.85l8.53-12.8A19.15,19.15,0,0,1,207,448H25.6a12.82,12.82,0,0,1-12.8-12.8c0-.69,1-72.54,60.25-131.75,28-28,56.89-64.18,80.55-99.88v-69c0-2.74,1.64-69.06,82.68-116.39a39.07,39.07,0,0,1,39.43,0c81.74,47.73,82.68,115.71,82.68,116.39v69c23.66,35.7,52.59,71.92,80.55,99.88C498.51,363,499.2,434.49,499.2,435.2Z"/><path class="cls-2" d="M282.17,7.09a51.88,51.88,0,0,0-52.34,0,211,211,0,0,0-41.77,31.57,51.77,51.77,0,0,1,30.12,6.83c89,52,89,127.45,89,127.45V460.8h64V134.53S371.2,59.08,282.17,7.09Z"/><path class="cls-3" d="M206.86,128a2.06,2.06,0,0,1-2.06-2.06c0-1.31,1.16-35.23,43.09-59.74a16.19,16.19,0,0,1,16.21,0c42.6,24.89,43.09,59.39,43.09,59.74a2.06,2.06,0,0,1-2.06,2.06Z"/><path class="cls-4" d="M320,125.94s0-41.9-49.43-70.79a29,29,0,0,0-29.13,0C192,84,192,125.94,192,125.94a14.86,14.86,0,0,0,14.86,14.86h98.28A14.86,14.86,0,0,0,320,125.94ZM220.18,115.2c3.7-10.05,12.64-25.37,34.17-37.95a3.39,3.39,0,0,1,3.3,0C279.2,89.84,288.12,105,291.81,115.2ZM448,294.4c-27.26-27.26-54.5-61.48-76.8-94.75V134.53s0-75.46-89-127.45a51.88,51.88,0,0,0-52.34,0c-89,52-89,127.45-89,127.45v65.12C118.5,232.92,91.26,267.14,64,294.4,0,358.4,0,435.2,0,435.2a25.6,25.6,0,0,0,25.6,25.6H172.8l-1,1.45C157.65,483.52,172.9,512,198.45,512H313.55c25.56,0,40.8-28.48,26.63-49.75l-1-1.45H486.4A25.6,25.6,0,0,0,512,435.2S512,358.4,448,294.4Zm-18.1,18.1A195.65,195.65,0,0,1,475.37,384H371.2V243.91C389.84,268.85,410.11,292.72,429.9,312.5Zm-263.5-178c0-.61.87-61.27,76.34-105.34a26.28,26.28,0,0,1,26.52,0c74.15,43.3,76.29,103.08,76.34,105.34V435.2H166.4Zm-84.3,178c19.79-19.79,40.06-43.65,58.7-68.59V384H36.43A195.89,195.89,0,0,1,82.1,312.5ZM29,409.6H140.8v25.6H25.6C25.6,434.94,25.7,425,29,409.6ZM319.19,483a6.09,6.09,0,0,1-5.64,3.38H198.45a6.4,6.4,0,0,1-5.32-9.95l8.53-12.8A6.39,6.39,0,0,1,207,460.8h98a6.39,6.39,0,0,1,5.32,2.85l8.53,12.8A6.09,6.09,0,0,1,319.19,483Zm52-47.82V409.6H482.83C486.2,425,486.4,435,486.4,435.2Z"/></svg>